<svg width="53" height="57" viewBox="0 0 53 57" fill="#FECB2E" xmlns="http://www.w3.org/2000/svg">
<path d="M40.78 53.75C39.16 53.75 37.55 53.8 35.93 53.74C32.57 53.61 29.53 54.48 26.84 56.49C26.1 57.04 25.5 57.04 24.77 56.49C22.05 54.45 18.97 53.64 15.57 53.73C12.05 53.82 8.52003 53.75 5.00003 53.75C3.57003 53.75 3.42003 53.59 3.41003 52.17C3.41003 50.92 3.39003 49.67 3.41003 48.43C3.42003 47.85 3.29003 47.53 2.67003 47.3C0.930028 46.64 -0.0699718 45.29 2.82484e-05 43.66C0.0800282 41.87 0.970028 40.59 2.70003 40.03C3.35003 39.82 3.42003 39.43 3.42003 38.87C3.41003 36.48 3.42003 34.1 3.42003 31.71C3.42003 30.31 3.58003 30.15 5.02003 30.13C6.34003 30.11 7.66003 30.11 8.98003 30.14C9.61003 30.15 9.90003 29.98 9.92003 29.28C10.1 24.18 13.82 18.86 21.92 19.09C22.3 19.1 22.92 19.54 22.99 19.87C23.14 20.56 22.53 20.75 21.92 20.79C20.93 20.86 19.94 20.89 18.96 21.05C15.11 21.67 12.14 24.79 11.72 28.6C11.56 30.04 11.63 30.11 13.04 30.11C14.1 30.11 15.17 30.13 16.23 30.11C19.45 30.05 22.4 30.9 25.07 32.69C25.54 33.01 25.91 33.14 26.44 32.77C29.28 30.77 32.47 30.01 35.91 30.1C37.41 30.14 38.92 30.05 40.42 30.13C41.46 30.18 41.64 29.76 41.56 28.84C41.22 24.98 38.22 21.72 34.29 21.06C33.39 20.91 32.45 20.97 31.56 20.77C31.18 20.68 30.89 20.19 30.56 19.87C30.9 19.61 31.24 19.13 31.58 19.12C38.74 18.92 42.89 23.55 43.26 29.02C43.32 29.98 43.69 30.2 44.54 30.15C45.53 30.09 46.52 30.13 47.51 30.15C48.85 30.17 49 30.33 49.01 31.71C49.02 34.06 49.04 36.41 49.01 38.76C49 39.48 49.19 39.87 49.92 40.13C51.5 40.69 52.38 42.05 52.39 43.68C52.39 45.29 51.5 46.67 49.92 47.23C49.19 47.49 48.97 47.86 49.01 48.59C49.07 49.84 49.01 51.09 49.03 52.33C49.05 53.33 48.66 53.8 47.59 53.78C45.31 53.73 43.04 53.77 40.76 53.77L40.78 53.75ZM26.78 54.32C27.1 54.18 27.3 54.11 27.48 54.01C30 52.57 32.71 51.98 35.61 52.02C39.13 52.07 42.65 52.02 46.18 52.05C47.03 52.05 47.33 51.81 47.32 50.93C47.29 44.95 47.29 38.97 47.32 32.99C47.32 32.16 47.12 31.83 46.22 31.84C42.33 31.89 38.44 31.86 34.55 31.9C32.02 31.92 29.74 32.75 27.61 34.09C26.94 34.51 26.7 35 26.7 35.79C26.73 41.59 26.7 47.38 26.7 53.18C26.7 53.53 26.75 53.88 26.78 54.34V54.32ZM24.79 54.43C24.86 53.96 24.92 53.78 24.92 53.6C24.92 47.55 24.95 41.5 24.9 35.45C24.9 35.04 24.54 34.5 24.18 34.24C22.36 32.93 20.32 32.05 18.07 31.98C14.04 31.86 10.01 31.89 5.97003 31.85C5.35003 31.85 5.11003 32.1 5.11003 32.7C5.11003 38.86 5.11003 45.02 5.11003 51.18C5.11003 51.77 5.33003 52.08 5.95003 52.04C6.17003 52.02 6.39003 52.04 6.61003 52.04C8.19003 52.04 9.76003 52.04 11.34 52.04C15.9 52.07 20.56 51.5 24.78 54.44L24.79 54.43ZM3.31003 45.58V41.68C2.23003 42.03 1.75003 42.72 1.76003 43.65C1.76003 44.56 2.16003 45.32 3.31003 45.58ZM49.18 41.71V45.58C50.27 45.27 50.68 44.56 50.68 43.65C50.68 42.75 50.27 42.04 49.18 41.7V41.71Z" />
<path d="M34.39 7.85C34.37 12.15 30.88 15.61 26.6 15.59C22.28 15.57 18.8 12.02 18.85 7.68C18.89 3.4 22.42 -0.0499974 26.71 2.63378e-06C31.02 0.0500026 34.41 3.52 34.39 7.85ZM20.57 7.85C20.59 11.15 23.33 13.86 26.63 13.85C29.98 13.84 32.74 11.05 32.7 7.73C32.66 4.44 29.91 1.74 26.61 1.73C23.25 1.73 20.54 4.47 20.56 7.86L20.57 7.85Z" />
<path d="M13.94 37.74C12.51 37.74 11.08 37.74 9.65003 37.74C9.04003 37.74 8.38003 37.72 8.35003 36.91C8.32003 36.11 8.95003 36.01 9.58003 36.01C12.55 36.01 15.53 36.01 18.5 36.01C19.11 36.01 19.67 36.14 19.69 36.85C19.72 37.65 19.1 37.75 18.46 37.75C16.96 37.75 15.45 37.75 13.95 37.75L13.94 37.74Z" />
<path d="M13.93 42.9C12.46 42.9 10.99 42.9 9.53 42.9C8.93 42.9 8.36 42.78 8.34 42.07C8.32 41.26 8.95 41.2 9.58 41.2C12.52 41.2 15.45 41.2 18.39 41.2C19.01 41.2 19.68 41.23 19.69 42.02C19.7 42.88 18.99 42.91 18.34 42.91C16.87 42.91 15.4 42.91 13.94 42.91L13.93 42.9Z" />
</svg>
