<svg width="25" height="18" viewBox="0 0 25 18" fill="none" xmlns="http://www.w3.org/2000/svg">
<path d="M0.471858 2.3325C0.626053 1.66986 1.00511 1.07822 1.54694 0.654463C2.08876 0.230706 2.76126 -4.57416e-05 3.45427 6.80121e-09H21.8076C22.5006 -4.57416e-05 23.1731 0.230706 23.7149 0.654463C24.2567 1.07822 24.6358 1.66986 24.79 2.3325L12.6309 9.621L0.471858 2.3325ZM0.395386 4.0455V14.7015L9.27073 9.3645L0.395386 4.0455ZM10.7359 10.245L0.687509 16.2855C0.935778 16.7989 1.32762 17.2326 1.81743 17.5362C2.30724 17.8397 2.87488 18.0005 3.45427 18H21.8076C22.3869 18.0001 22.9543 17.8389 23.4438 17.5351C23.9333 17.2313 24.3249 16.7975 24.5728 16.284L14.5244 10.2435L12.6309 11.379L10.7359 10.245ZM15.9911 9.366L24.8664 14.7015V4.0455L15.9911 9.3645V9.366Z" fill="white"/>
</svg>
