<svg width="1920" height="657" viewBox="0 0 1920 657" fill="none" xmlns="http://www.w3.org/2000/svg">
<rect width="1920" height="657" fill="#00384D"/>
<g clip-path="url(#clip0_111_162)">
<path d="M1393.15 162.31C1397.18 162.393 1401.11 163.254 1404.71 165.356C1405.58 165.869 1406.15 165.753 1406.97 165.24C1414.5 160.572 1422.38 160.175 1430.48 163.634C1431.72 164.164 1432.5 164.065 1433.56 163.27C1442.01 156.997 1455.17 157.726 1462.9 164.826C1468.17 169.659 1469.03 176.644 1465.19 182.669C1464.77 183.314 1464.66 184.39 1464.87 185.119C1465.8 188.197 1466.96 191.21 1467.9 194.288C1468.13 195.05 1467.87 195.96 1467.82 196.804C1466.94 196.639 1465.91 196.721 1465.19 196.291C1462.22 194.503 1459.38 192.534 1456.41 190.73C1455.72 190.316 1454.69 190.051 1453.93 190.233C1447.92 191.59 1442.13 191.259 1436.49 188.661C1435.94 188.412 1434.93 188.528 1434.4 188.876C1426.01 194.537 1417.35 194.834 1408.35 190.448C1407.74 190.15 1406.66 190.2 1406.1 190.564C1400.17 194.338 1393.78 195.199 1387.05 193.643C1385.54 193.295 1384.41 193.51 1383.17 194.371C1380.42 196.258 1377.61 198.062 1374.75 199.8C1374.12 200.181 1373.22 200.098 1372.45 200.214C1372.36 199.386 1372.03 198.476 1372.26 197.731C1373.22 194.603 1374.4 191.524 1375.38 188.396C1375.58 187.75 1375.51 186.807 1375.18 186.244C1370.73 178.829 1372.3 171.381 1379.45 166.382C1383.52 163.535 1388.1 162.36 1393.14 162.327L1393.15 162.31ZM1376.22 194.901C1376.35 195 1376.49 195.099 1376.63 195.199C1378.67 193.891 1380.76 192.666 1382.71 191.259C1384.02 190.316 1385.24 190.2 1386.78 190.63C1392.72 192.269 1398.47 191.756 1403.85 188.611C1411.99 183.861 1412.57 174.691 1405.12 168.964C1398.76 164.065 1387.74 163.949 1381.09 168.683C1375.53 172.622 1373.26 179.326 1378.12 185.417C1378.6 186.029 1378.7 187.237 1378.49 188.048C1377.88 190.366 1377 192.617 1376.24 194.901H1376.22ZM1463.56 191.888C1463.7 191.789 1463.85 191.69 1463.98 191.574C1463.23 189.356 1462.52 187.121 1461.69 184.92C1461.26 183.778 1461.35 182.917 1462.09 181.891C1466.23 176.28 1465.34 170.189 1459.86 165.919C1452.89 160.506 1441.63 160.49 1434.68 165.886C1428.14 170.95 1428.26 179.408 1434.95 184.241C1440.74 188.446 1447.11 189.058 1453.83 187.171C1455.07 186.823 1456.02 186.939 1457.06 187.651C1459.19 189.108 1461.4 190.465 1463.58 191.872L1463.56 191.888ZM1432.53 186.492C1431.24 184.854 1430.05 183.348 1428.82 181.841C1428.08 180.931 1427.13 180.137 1426.6 179.127C1426.12 178.217 1425.64 176.926 1425.93 176.048C1426.95 172.821 1428.29 169.676 1429.53 166.481C1424.4 162.972 1412.77 163.684 1408.6 167.888C1409.52 169.146 1410.47 170.388 1411.38 171.662C1412.27 172.92 1413.28 174.145 1413.94 175.519C1414.34 176.346 1414.52 177.571 1414.19 178.382C1412.9 181.593 1411.39 184.705 1409.94 187.866C1415.5 191.954 1427.42 191.276 1432.51 186.509L1432.53 186.492Z" fill="#FECB2E"/>
<path d="M1404.23 232.374C1407.64 226.217 1412.62 222.691 1419.54 222.658C1426.49 222.625 1431.47 226.117 1434.95 232.324C1435.48 231.53 1435.91 230.901 1436.3 230.272C1440.21 224.313 1447.43 221.4 1454.23 223.072C1461.3 224.81 1466.44 230.719 1467.11 237.885C1467.14 238.299 1467.3 238.812 1467.12 239.143C1466.79 239.756 1466.26 240.236 1465.82 240.782C1465.34 240.269 1464.61 239.839 1464.42 239.243C1463.93 237.637 1463.9 235.866 1463.28 234.31C1460.97 228.285 1454.61 224.644 1448.42 225.621C1441.83 226.663 1436.95 231.894 1436.44 238.432C1436.39 239.028 1436.4 239.723 1436.1 240.17C1435.87 240.517 1434.95 240.865 1434.76 240.716C1434.23 240.269 1433.64 239.574 1433.59 238.945C1433.34 235.75 1432.28 232.937 1430.25 230.454C1426.72 226.167 1420.88 224.429 1415.42 226.117C1410.12 227.739 1406.13 232.721 1405.72 238.183C1405.67 238.73 1405.78 239.359 1405.53 239.789C1405.27 240.236 1404.67 240.749 1404.21 240.749C1403.76 240.749 1403.17 240.219 1402.92 239.756C1402.67 239.325 1402.77 238.697 1402.72 238.15C1401.99 230.967 1396.02 225.488 1388.87 225.455C1381.72 225.422 1375.72 230.884 1374.95 238.068C1374.83 239.177 1375.16 240.898 1373.31 240.699C1371.55 240.517 1372.02 238.895 1372.13 237.77C1372.79 230.619 1378.02 224.677 1385.08 223.039C1392.04 221.4 1399.43 224.528 1403.17 230.669C1403.46 231.165 1403.78 231.662 1404.23 232.374Z" fill="#FECB2E"/>
<path d="M1427.66 213.29C1427.63 217.676 1424.02 221.284 1419.64 221.284C1415.17 221.284 1411.53 217.626 1411.56 213.157C1411.59 208.705 1415.3 205.097 1419.77 205.179C1424.14 205.246 1427.68 208.887 1427.65 213.306L1427.66 213.29ZM1419.67 208.043C1416.77 208.026 1414.46 210.344 1414.46 213.224C1414.46 216.037 1416.72 218.355 1419.49 218.404C1422.37 218.454 1424.77 216.153 1424.78 213.306C1424.8 210.377 1422.53 208.059 1419.65 208.043H1419.67Z" fill="#FECB2E"/>
<path d="M1450.41 205.179C1454.87 205.179 1458.48 208.821 1458.45 213.323C1458.42 217.676 1454.79 221.234 1450.37 221.284C1445.97 221.317 1442.28 217.593 1442.31 213.124C1442.34 208.771 1445.99 205.196 1450.39 205.179H1450.41ZM1450.42 218.421C1453.29 218.371 1455.62 216.004 1455.59 213.141C1455.55 210.294 1453.15 207.993 1450.26 208.043C1447.48 208.092 1445.19 210.426 1445.19 213.223C1445.19 216.087 1447.58 218.454 1450.41 218.421H1450.42Z" fill="#FECB2E"/>
<path d="M1396.89 213.19C1396.94 217.543 1393.37 221.201 1388.97 221.284C1384.51 221.367 1380.84 217.759 1380.79 213.257C1380.76 208.87 1384.31 205.229 1388.7 205.163C1393.17 205.097 1396.83 208.688 1396.88 213.19H1396.89ZM1394.03 213.174C1394.01 210.31 1391.63 208.01 1388.73 208.043C1385.99 208.076 1383.67 210.41 1383.62 213.19C1383.59 216.004 1386.02 218.454 1388.83 218.421C1391.73 218.388 1394.05 216.054 1394.03 213.174Z" fill="#FECB2E"/>
<path d="M1384.96 180.699C1383.5 180.733 1382.26 179.508 1382.3 178.068C1382.31 176.677 1383.47 175.535 1384.86 175.502C1386.25 175.469 1387.44 176.595 1387.51 177.985C1387.58 179.491 1386.47 180.683 1384.96 180.716V180.699Z" fill="#FECB2E"/>
<path d="M1401.05 180.716C1399.62 180.716 1398.45 179.441 1398.48 178.001C1398.52 176.644 1399.67 175.535 1401.08 175.502C1402.5 175.469 1403.75 176.694 1403.75 178.134C1403.75 179.541 1402.5 180.749 1401.05 180.732V180.716Z" fill="#FECB2E"/>
<path d="M1392.87 175.502C1394.36 175.452 1395.59 176.611 1395.59 178.084C1395.59 179.574 1394.61 180.617 1393.12 180.699C1391.6 180.765 1390.42 179.673 1390.39 178.15C1390.36 176.777 1391.5 175.552 1392.87 175.519V175.502Z" fill="#FECB2E"/>
<path d="M1441.72 174.741C1441.75 176.181 1440.56 177.406 1439.08 177.406C1437.71 177.406 1436.54 176.297 1436.45 174.923C1436.39 173.499 1437.58 172.192 1438.98 172.142C1440.41 172.092 1441.67 173.301 1441.7 174.741H1441.72Z" fill="#FECB2E"/>
<path d="M1457.89 174.757C1457.9 176.23 1456.73 177.439 1455.29 177.422C1453.93 177.422 1452.77 176.28 1452.72 174.906C1452.67 173.433 1453.8 172.192 1455.24 172.142C1456.66 172.092 1457.89 173.301 1457.9 174.757H1457.89Z" fill="#FECB2E"/>
<path d="M1447.18 177.405C1445.8 177.422 1444.63 176.263 1444.6 174.856C1444.56 173.4 1445.77 172.125 1447.21 172.142C1448.57 172.142 1449.76 173.334 1449.81 174.708C1449.86 176.164 1448.67 177.389 1447.19 177.405H1447.18Z" fill="#FECB2E"/>
<path d="M1420.2 174.509C1421.59 174.542 1422.68 175.717 1422.66 177.141C1422.66 178.663 1421.49 179.805 1420 179.739C1418.56 179.69 1417.52 178.581 1417.52 177.124C1417.52 175.651 1418.74 174.459 1420.2 174.492V174.509Z" fill="#FECB2E"/>
</g>
<g clip-path="url(#clip1_111_162)">
<path d="M200.395 295.774C200.395 300.505 200.359 305.253 200.467 309.984C200.467 310.434 201.384 311.189 201.906 311.225C204.28 311.369 206.654 311.261 209.029 311.297C212.033 311.333 213.651 312.844 213.669 315.506C213.669 318.15 212.051 319.751 209.083 319.751C193.775 319.787 178.45 319.787 163.142 319.769C160.174 319.769 158.519 318.204 158.501 315.542C158.483 312.898 160.12 311.369 163.106 311.297C165.481 311.243 167.855 311.243 170.229 311.297C171.309 311.297 171.776 310.919 171.776 309.804C171.74 302.807 171.83 295.81 171.668 288.813C171.632 287.589 170.787 286.168 169.888 285.233C162.944 277.912 155.893 270.681 148.878 263.414C148.32 262.838 147.781 262.263 147.313 261.633C145.334 258.989 145.586 256.039 147.925 254.025C150.137 252.136 153.231 252.244 155.444 254.456C159.545 258.575 163.628 262.695 167.639 266.904C173.791 273.379 173.755 273.415 182.713 273.415C186.202 273.415 189.71 273.415 193.2 273.415C197.427 273.415 200.754 275.196 203.057 278.704C207.518 285.485 211.907 292.302 216.278 299.156C218.148 302.088 217.465 305.523 214.839 307.196C212.051 308.977 208.723 308.167 206.798 305.163C204.784 302.016 202.841 298.814 200.862 295.63C200.7 295.684 200.556 295.738 200.395 295.792V295.774ZM174.906 299.012C174.906 302.447 174.978 305.883 174.87 309.301C174.816 310.919 175.41 311.315 176.939 311.297C182.803 311.225 188.685 311.279 194.567 311.261C197.301 311.261 197.319 311.261 197.319 308.419C197.319 302.339 197.283 296.278 197.373 290.198C197.373 289.406 198.02 288.633 198.362 287.859C199.135 288.327 200.089 288.651 200.61 289.298C201.564 290.467 202.247 291.853 203.039 293.148C205.179 296.637 207.32 300.127 209.496 303.58C210.36 304.948 211.655 305.361 213.076 304.516C214.479 303.67 214.443 302.357 213.813 301.044C213.508 300.397 213.058 299.803 212.662 299.191C208.795 293.202 204.892 287.248 201.078 281.222C199.064 278.038 196.347 276.419 192.552 276.473C187.803 276.545 183.055 276.437 178.306 276.509C174.438 276.563 171.273 275.16 168.61 272.372C163.916 267.461 159.131 262.623 154.382 257.766C152.368 255.697 151.09 255.338 149.885 256.489C148.68 257.64 149.004 259.007 150.965 261.04C158.07 268.397 165.157 275.772 172.28 283.093C174.043 284.891 174.942 286.942 174.888 289.478C174.816 292.644 174.888 295.81 174.888 298.976L174.906 299.012ZM186.31 314.391C178.719 314.391 171.129 314.391 163.538 314.463C162.908 314.463 162.297 315.2 161.685 315.614C162.297 315.956 162.89 316.334 163.52 316.64C163.736 316.747 164.042 316.657 164.311 316.657C178.899 316.657 193.487 316.657 208.075 316.657C208.597 316.657 209.191 316.747 209.64 316.55C210.036 316.37 210.432 315.866 210.486 315.452C210.522 315.165 210.036 314.643 209.676 314.535C209.137 314.355 208.507 314.427 207.913 314.427C200.718 314.427 193.523 314.427 186.328 314.427L186.31 314.391Z" fill="#FECB2E"/>
<path d="M219.246 273.595C212.752 273.649 212.734 273.649 212.77 267.228C212.77 265.932 213.094 264.637 213.238 263.342C213.508 260.824 212.212 258.917 210.666 257.155C207.895 253.971 206.708 250.355 207.644 246.164C208.759 241.182 212.698 237.566 217.735 236.829C222.537 236.127 227.412 238.573 229.876 242.926C232.305 247.207 231.837 252.514 228.671 256.453C227.898 257.424 227.07 258.396 226.459 259.457C225.595 260.968 225.379 262.497 225.739 264.368C226.189 266.58 225.991 268.954 225.883 271.257C225.829 272.696 224.786 273.487 223.365 273.559C221.98 273.631 220.595 273.559 219.21 273.559L219.246 273.595ZM219.408 262.335C220.379 261.957 221.746 263.144 222.537 261.292C223.509 258.971 224.714 256.651 226.261 254.672C229.643 250.301 228.725 244.024 224.066 241.199C220.433 239.005 215.882 239.599 213.004 242.639C209.928 245.894 209.658 250.427 212.195 254.061C213.508 255.931 215.073 257.784 215.792 259.889C216.476 261.921 217.267 262.839 219.408 262.335ZM219.336 270.501C222.969 270.501 222.933 270.501 222.879 266.976C222.879 265.986 222.591 265.501 221.548 265.537C220.109 265.591 218.652 265.501 217.213 265.591C216.781 265.609 216.152 265.915 216.008 266.256C214.947 268.775 216.098 270.501 218.742 270.501C218.94 270.501 219.138 270.501 219.336 270.501Z" fill="#FECB2E"/>
<path d="M197.049 260.554C196.995 266.616 192.102 271.491 186.058 271.509C180.087 271.509 175.14 266.508 175.14 260.482C175.14 254.492 180.141 249.528 186.148 249.546C192.156 249.564 197.103 254.564 197.049 260.572V260.554ZM193.919 260.554C193.919 256.201 190.483 252.676 186.202 252.622C181.813 252.568 178.27 256.111 178.288 260.536C178.288 264.853 181.777 268.325 186.094 268.343C190.393 268.361 193.901 264.871 193.919 260.536V260.554Z" fill="#FECB2E"/>
<path d="M201.168 250.139C200.179 250.139 199.153 250.301 198.218 250.085C197.66 249.959 196.797 249.15 196.851 248.79C196.959 248.179 197.66 247.243 198.182 247.207C200.197 247.027 202.265 247.063 204.28 247.207C204.766 247.243 205.503 248.125 205.521 248.61C205.521 249.114 204.82 249.923 204.298 250.049C203.309 250.283 202.211 250.121 201.168 250.121V250.139Z" fill="#FECB2E"/>
<path d="M237.431 250.157C236.514 250.157 235.542 250.337 234.697 250.103C234.085 249.923 233.636 249.168 233.132 248.664C233.636 248.143 234.085 247.243 234.625 247.189C236.514 247.009 238.438 246.973 240.327 247.189C240.939 247.243 241.442 248.179 242.018 248.718C241.478 249.204 241.011 249.959 240.399 250.121C239.482 250.355 238.438 250.175 237.449 250.175L237.431 250.157Z" fill="#FECB2E"/>
<path d="M213.634 235.39C213.04 236.019 212.698 236.685 212.266 236.757C211.727 236.847 210.827 236.649 210.576 236.253C209.442 234.562 208.417 232.781 207.518 230.965C207.302 230.533 207.59 229.633 207.949 229.238C208.237 228.932 209.334 228.842 209.496 229.076C210.935 231.09 212.23 233.195 213.634 235.39Z" fill="#FECB2E"/>
<path d="M226.621 237.188C226.279 236.487 225.469 235.569 225.667 235.12C226.567 233.105 227.718 231.18 228.923 229.328C229.139 228.986 230.164 228.878 230.65 229.076C231.046 229.238 231.549 230.191 231.405 230.461C230.29 232.583 229.031 234.634 227.79 236.703C227.682 236.883 227.322 236.901 226.639 237.188H226.621Z" fill="#FECB2E"/>
<path d="M206.007 242.764C203.92 241.469 201.888 240.264 199.963 238.915C199.675 238.717 199.639 237.656 199.891 237.332C200.215 236.918 201.132 236.505 201.51 236.703C203.452 237.656 205.341 238.753 207.14 239.94C207.5 240.174 207.608 241.164 207.464 241.685C207.338 242.099 206.636 242.351 206.025 242.782L206.007 242.764Z" fill="#FECB2E"/>
<path d="M239.14 238.375C238.906 238.645 238.582 239.239 238.079 239.563C236.64 240.48 235.201 241.433 233.636 242.081C233.006 242.333 232.053 241.847 231.261 241.685C231.531 240.966 231.585 239.94 232.107 239.563C233.528 238.519 235.111 237.674 236.676 236.864C237.953 236.217 239.104 236.828 239.158 238.375H239.14Z" fill="#FECB2E"/>
<path d="M220.829 230.317C220.829 231.36 220.99 232.439 220.775 233.447C220.667 233.986 219.821 234.796 219.461 234.724C218.886 234.598 218.022 233.896 217.986 233.375C217.825 231.432 217.825 229.436 217.986 227.493C218.04 226.953 218.922 226.486 219.408 225.982C219.875 226.504 220.613 226.953 220.775 227.565C221.008 228.41 220.829 229.382 220.829 230.299V230.317Z" fill="#FECB2E"/>
</g>
<g clip-path="url(#clip2_111_162)">
<path d="M1626.96 478.762C1626.96 477.977 1626.96 477.273 1626.96 476.584C1626.96 458.78 1626.96 440.975 1626.96 423.17C1626.96 420.048 1627.01 420 1630.08 420C1658.13 420 1686.19 420 1714.24 420C1716.8 420 1716.98 420.192 1716.98 422.834C1716.98 440.815 1717.01 458.796 1717.01 476.777C1717.01 477.977 1716.87 479.066 1718.59 479.306C1719.11 479.37 1719.86 480.475 1719.89 481.132C1720.02 483.165 1720.08 485.263 1719.75 487.264C1719.18 490.787 1716.26 493.14 1712.75 493.204C1709.79 493.268 1706.83 493.22 1703.87 493.22C1680.11 493.22 1656.35 493.22 1632.59 493.22C1626.75 493.204 1624 490.386 1624 484.414C1624 483.774 1624 483.117 1624 482.477C1624.02 479.835 1624.28 479.467 1626.96 478.746V478.762ZM1671.91 478.986C1685.27 478.986 1698.63 478.986 1711.99 478.986C1713.49 478.986 1714.24 478.207 1714.24 476.648C1714.24 459.436 1714.24 442.224 1714.24 424.996C1714.24 423.469 1713.47 422.706 1711.94 422.706C1685.22 422.706 1658.51 422.706 1631.79 422.658C1630.05 422.658 1629.68 423.234 1629.68 424.867C1629.73 442.208 1629.73 459.532 1629.68 476.873C1629.68 478.602 1630.19 479.034 1631.85 479.018C1645.21 478.954 1658.57 478.986 1671.93 478.986H1671.91ZM1672.02 490.482C1684.99 490.482 1697.94 490.482 1710.9 490.482C1711.71 490.482 1712.53 490.482 1713.34 490.354C1715.43 490.034 1717.02 488.321 1717.2 486.191C1717.28 485.199 1717.2 484.19 1717.26 483.197C1717.32 482.14 1716.93 481.74 1715.85 481.756C1707.19 481.788 1698.54 481.804 1689.88 481.772C1688.77 481.772 1688.37 482.14 1688.28 483.277C1687.99 486.784 1685.81 488.817 1682.31 488.849C1675.46 488.897 1668.6 488.897 1661.74 488.849C1658.27 488.833 1656.01 486.832 1655.67 483.341C1655.55 481.932 1654.94 481.756 1653.81 481.772C1649.97 481.82 1646.13 481.788 1642.3 481.772C1637.64 481.772 1633.01 481.74 1628.35 481.788C1627.8 481.788 1626.85 482.172 1626.74 482.573C1625.42 487.04 1628.04 490.466 1632.63 490.466C1645.76 490.466 1658.89 490.466 1672.02 490.466V490.482ZM1672.06 481.804C1668.18 481.804 1664.28 481.788 1660.41 481.82C1659.76 481.82 1658.59 482.044 1658.57 482.269C1658.49 483.085 1658.52 484.174 1659.01 484.702C1659.65 485.391 1660.74 486.015 1661.64 486.031C1668.54 486.143 1675.44 486.127 1682.34 486.031C1683.21 486.031 1684.29 485.487 1684.89 484.846C1685.4 484.302 1685.54 483.229 1685.46 482.413C1685.45 482.156 1684.21 481.852 1683.55 481.836C1679.72 481.788 1675.89 481.804 1672.07 481.82L1672.06 481.804Z" fill="#FECB2E"/>
<path d="M1672.02 426.148C1684.05 426.148 1696.07 426.148 1708.1 426.148C1710.3 426.148 1710.61 426.453 1710.61 428.694C1710.61 443.441 1710.61 458.187 1710.61 472.95C1710.61 475.32 1710.34 475.576 1708 475.592C1683.9 475.592 1659.79 475.592 1635.68 475.592C1633.72 475.592 1633.34 475.24 1633.34 473.222C1633.34 458.347 1633.34 443.489 1633.34 428.614C1633.34 426.469 1633.67 426.164 1635.76 426.164C1647.84 426.164 1659.93 426.164 1672.01 426.164L1672.02 426.148ZM1672.12 428.902C1660.8 428.902 1649.47 428.918 1638.15 428.87C1636.65 428.87 1636.01 429.175 1636.03 430.904C1636.11 444.177 1636.09 457.451 1636.03 470.724C1636.03 472.454 1636.58 472.87 1638.23 472.87C1660.75 472.822 1683.29 472.822 1705.82 472.87C1707.37 472.87 1707.91 472.502 1707.91 470.82C1707.84 457.547 1707.84 444.273 1707.91 431C1707.91 429.287 1707.38 428.854 1705.74 428.854C1694.53 428.918 1683.33 428.886 1672.12 428.902Z" fill="#FECB2E"/>
<path d="M1677.37 467.81C1677.37 465.937 1677.37 464.256 1677.37 462.575C1677.37 461.598 1677.45 460.525 1678.74 460.541C1679.99 460.541 1680.1 461.614 1680.11 462.591C1680.14 463.935 1680.16 465.296 1680.13 466.641C1680.1 468.098 1681.14 467.794 1681.96 467.794C1682.79 467.794 1683.82 468.066 1683.8 466.625C1683.77 463.391 1683.91 460.157 1683.71 456.938C1683.52 454.04 1681.82 452.087 1679.05 451.174C1678.78 451.078 1678.4 451.11 1678.23 450.934C1677.72 450.422 1676.88 449.781 1676.91 449.253C1677.01 448.164 1677.99 448.1 1678.94 448.276C1683.01 448.997 1686.35 452.727 1686.49 457.035C1686.62 460.909 1686.49 464.784 1686.54 468.675C1686.54 470.308 1685.6 470.612 1684.28 470.612C1677.42 470.612 1670.57 470.612 1663.71 470.612C1662.32 470.612 1660.93 470.58 1659.54 470.612C1658.17 470.644 1657.48 470.084 1657.49 468.643C1657.52 464.768 1657.43 460.877 1657.54 457.003C1657.67 452.727 1660.82 449.141 1664.92 448.324C1665.91 448.132 1666.88 448.068 1667.13 449.317C1667.37 450.47 1666.48 450.774 1665.58 451.03C1662 452.023 1660.22 454.313 1660.17 458.043C1660.14 460.797 1660.23 463.567 1660.14 466.321C1660.09 467.842 1660.93 467.858 1662.02 467.842C1663.06 467.842 1664.03 467.906 1663.9 466.337C1663.81 465.168 1663.89 463.984 1663.9 462.815C1663.9 461.806 1663.84 460.589 1665.22 460.573C1666.71 460.573 1666.63 461.838 1666.64 462.911C1666.64 464.144 1666.58 465.393 1666.69 466.609C1666.74 467.042 1667.18 467.522 1667.58 467.778C1667.86 467.97 1668.37 467.826 1668.78 467.826C1671.55 467.826 1674.33 467.826 1677.41 467.826L1677.37 467.81Z" fill="#FECB2E"/>
<path d="M1672.06 446.371C1668.13 446.403 1664.92 443.233 1664.89 439.294C1664.85 435.291 1667.92 432.073 1671.85 431.993C1675.85 431.929 1679.15 435.163 1679.11 439.166C1679.08 443.169 1675.98 446.339 1672.06 446.371ZM1667.62 439.166C1667.59 441.6 1669.63 443.665 1672.06 443.633C1674.37 443.601 1676.38 441.551 1676.38 439.214C1676.38 436.844 1674.45 434.827 1672.1 434.747C1669.7 434.667 1667.66 436.684 1667.62 439.166Z" fill="#FECB2E"/>
</g>
<g clip-path="url(#clip3_111_162)">
<path d="M486.153 455.31C490.175 455.393 494.114 456.254 497.706 458.356C498.583 458.869 499.146 458.753 499.974 458.24C507.505 453.572 515.383 453.175 523.477 456.634C524.719 457.164 525.497 457.065 526.556 456.27C535.014 449.997 548.172 450.726 555.902 457.826C561.166 462.659 562.026 469.644 558.186 475.669C557.772 476.314 557.657 477.39 557.872 478.119C558.799 481.197 559.957 484.21 560.901 487.288C561.132 488.05 560.868 488.96 560.818 489.804C559.941 489.639 558.914 489.721 558.186 489.291C555.223 487.503 552.377 485.534 549.414 483.73C548.719 483.316 547.692 483.051 546.931 483.233C540.923 484.59 535.13 484.259 529.486 481.661C528.939 481.412 527.93 481.528 527.4 481.876C519.008 487.537 510.352 487.834 501.348 483.448C500.735 483.15 499.659 483.2 499.097 483.564C493.171 487.338 486.782 488.199 480.046 486.643C478.539 486.295 477.414 486.51 476.172 487.371C473.425 489.258 470.611 491.062 467.748 492.8C467.119 493.181 466.225 493.098 465.447 493.214C465.364 492.386 465.033 491.476 465.265 490.731C466.225 487.603 467.4 484.524 468.377 481.396C468.575 480.75 468.509 479.807 468.178 479.244C463.726 471.829 465.298 464.381 472.448 459.382C476.52 456.535 481.105 455.36 486.137 455.327L486.153 455.31ZM469.221 487.901C469.353 488 469.486 488.099 469.634 488.199C471.67 486.891 473.756 485.666 475.709 484.259C477.017 483.316 478.241 483.2 479.781 483.63C485.723 485.269 491.466 484.756 496.846 481.611C504.989 476.861 505.568 467.691 498.12 461.964C491.764 457.065 480.741 456.949 474.087 461.683C468.526 465.622 466.258 472.326 471.124 478.417C471.604 479.029 471.703 480.237 471.488 481.048C470.876 483.366 469.999 485.617 469.237 487.901H469.221ZM556.564 484.888C556.697 484.789 556.846 484.69 556.978 484.574C556.233 482.356 555.521 480.121 554.694 477.92C554.263 476.778 554.346 475.917 555.091 474.891C559.229 469.28 558.335 463.189 552.857 458.919C545.888 453.506 534.633 453.49 527.681 458.886C521.143 463.95 521.259 472.408 527.946 477.241C533.739 481.446 540.112 482.058 546.832 480.171C548.073 479.823 549.017 479.939 550.059 480.651C552.194 482.108 554.396 483.465 556.581 484.872L556.564 484.888ZM525.53 479.492C524.239 477.854 523.047 476.348 521.822 474.841C521.077 473.931 520.134 473.137 519.604 472.127C519.124 471.217 518.644 469.926 518.926 469.048C519.952 465.821 521.292 462.676 522.534 459.481C517.403 455.972 505.767 456.684 501.596 460.888C502.523 462.146 503.466 463.388 504.377 464.662C505.27 465.92 506.28 467.145 506.942 468.519C507.339 469.346 507.521 470.571 507.19 471.382C505.899 474.593 504.393 477.705 502.937 480.866C508.498 484.954 520.415 484.276 525.513 479.509L525.53 479.492Z" fill="#FECB2E"/>
<path d="M497.226 525.374C500.636 519.217 505.618 515.691 512.537 515.658C519.488 515.625 524.47 519.117 527.946 525.324C528.476 524.53 528.906 523.901 529.303 523.272C533.21 517.313 540.426 514.4 547.229 516.072C554.297 517.81 559.444 523.719 560.106 530.885C560.139 531.299 560.305 531.812 560.123 532.143C559.792 532.756 559.262 533.236 558.815 533.782C558.335 533.269 557.607 532.839 557.425 532.243C556.928 530.637 556.895 528.866 556.283 527.31C553.966 521.285 547.61 517.644 541.419 518.621C534.832 519.663 529.949 524.894 529.436 531.432C529.386 532.028 529.403 532.723 529.105 533.17C528.873 533.517 527.946 533.865 527.764 533.716C527.234 533.269 526.639 532.574 526.589 531.945C526.341 528.75 525.281 525.937 523.246 523.454C519.72 519.167 513.877 517.429 508.415 519.117C503.119 520.739 499.13 525.721 498.716 531.183C498.666 531.73 498.782 532.359 498.534 532.789C498.269 533.236 497.673 533.749 497.21 533.749C496.763 533.749 496.167 533.219 495.919 532.756C495.67 532.325 495.77 531.697 495.72 531.15C494.992 523.967 489.017 518.488 481.866 518.455C474.716 518.422 468.724 523.884 467.946 531.068C467.83 532.177 468.161 533.898 466.308 533.699C464.553 533.517 465.017 531.895 465.132 530.77C465.794 523.619 471.025 517.677 478.076 516.039C485.044 514.4 492.426 517.528 496.167 523.669C496.465 524.165 496.779 524.662 497.226 525.374Z" fill="#FECB2E"/>
<path d="M520.663 506.29C520.63 510.676 517.022 514.284 512.636 514.284C508.167 514.284 504.526 510.626 504.559 506.157C504.592 501.705 508.299 498.097 512.768 498.179C517.138 498.246 520.68 501.887 520.647 506.306L520.663 506.29ZM512.669 501.043C509.772 501.026 507.455 503.344 507.455 506.224C507.455 509.037 509.723 511.355 512.487 511.404C515.367 511.454 517.767 509.153 517.783 506.306C517.8 503.377 515.532 501.059 512.652 501.043H512.669Z" fill="#FECB2E"/>
<path d="M543.406 498.179C547.874 498.179 551.483 501.821 551.45 506.323C551.417 510.676 547.792 514.234 543.372 514.284C538.97 514.317 535.279 510.593 535.312 506.124C535.345 501.771 538.986 498.196 543.389 498.179H543.406ZM543.422 511.421C546.286 511.371 548.619 509.004 548.586 506.141C548.553 503.294 546.153 500.993 543.257 501.043C540.476 501.092 538.192 503.426 538.192 506.223C538.192 509.087 540.575 511.454 543.406 511.421H543.422Z" fill="#FECB2E"/>
<path d="M489.894 506.19C489.943 510.543 486.368 514.201 481.966 514.284C477.513 514.367 473.839 510.759 473.789 506.257C473.756 501.87 477.314 498.229 481.701 498.163C486.17 498.097 489.828 501.688 489.877 506.19H489.894ZM487.03 506.174C487.014 503.31 484.63 501.01 481.734 501.043C478.986 501.076 476.669 503.41 476.619 506.19C476.586 509.004 479.019 511.454 481.833 511.421C484.73 511.388 487.047 509.054 487.03 506.174Z" fill="#FECB2E"/>
<path d="M477.96 473.699C476.503 473.733 475.262 472.508 475.295 471.068C475.312 469.677 476.47 468.535 477.861 468.502C479.251 468.469 480.443 469.595 480.509 470.985C480.575 472.491 479.466 473.683 477.96 473.716V473.699Z" fill="#FECB2E"/>
<path d="M494.048 473.716C492.625 473.716 491.45 472.441 491.483 471.001C491.516 469.644 492.674 468.535 494.081 468.502C495.505 468.469 496.746 469.694 496.746 471.134C496.746 472.541 495.505 473.749 494.048 473.732V473.716Z" fill="#FECB2E"/>
<path d="M485.872 468.502C487.361 468.452 488.586 469.611 488.586 471.084C488.586 472.574 487.61 473.617 486.12 473.699C484.597 473.765 483.422 472.673 483.389 471.15C483.356 469.777 484.498 468.552 485.872 468.519V468.502Z" fill="#FECB2E"/>
<path d="M534.716 467.741C534.749 469.181 533.557 470.406 532.084 470.406C530.71 470.406 529.535 469.297 529.452 467.923C529.386 466.499 530.578 465.192 531.985 465.142C533.408 465.092 534.666 466.301 534.699 467.741H534.716Z" fill="#FECB2E"/>
<path d="M550.887 467.757C550.903 469.23 549.728 470.439 548.288 470.422C546.931 470.422 545.772 469.28 545.723 467.906C545.673 466.433 546.799 465.192 548.239 465.142C549.662 465.092 550.887 466.301 550.903 467.757H550.887Z" fill="#FECB2E"/>
<path d="M540.178 470.405C538.804 470.422 537.629 469.263 537.596 467.856C537.563 466.4 538.771 465.125 540.211 465.142C541.568 465.142 542.76 466.334 542.81 467.708C542.859 469.164 541.668 470.389 540.194 470.405H540.178Z" fill="#FECB2E"/>
<path d="M513.199 467.509C514.589 467.542 515.681 468.717 515.665 470.141C515.665 471.663 514.49 472.805 513 472.739C511.56 472.69 510.517 471.581 510.517 470.124C510.517 468.651 511.742 467.459 513.199 467.492V467.509Z" fill="#FECB2E"/>
</g>
<path d="M1149.41 427.792C1149.41 432.523 1149.37 437.271 1149.48 442.002C1149.48 442.452 1150.4 443.207 1150.92 443.243C1153.3 443.387 1155.67 443.279 1158.04 443.315C1161.05 443.351 1162.67 444.862 1162.69 447.524C1162.69 450.169 1161.07 451.769 1158.1 451.769C1142.79 451.805 1127.47 451.805 1112.16 451.787C1109.19 451.787 1107.54 450.222 1107.52 447.56C1107.5 444.916 1109.14 443.387 1112.12 443.315C1114.5 443.261 1116.87 443.261 1119.25 443.315C1120.32 443.315 1120.79 442.938 1120.79 441.822C1120.76 434.825 1120.85 427.828 1120.68 420.831C1120.65 419.608 1119.8 418.187 1118.9 417.251C1111.96 409.93 1104.91 402.699 1097.89 395.432C1097.34 394.857 1096.8 394.281 1096.33 393.651C1094.35 391.007 1094.6 388.057 1096.94 386.043C1099.15 384.154 1102.25 384.262 1104.46 386.474C1108.56 390.593 1112.64 394.713 1116.66 398.922C1122.81 405.397 1122.77 405.433 1131.73 405.433C1135.22 405.433 1138.73 405.433 1142.22 405.433C1146.44 405.433 1149.77 407.214 1152.07 410.722C1156.53 417.503 1160.92 424.32 1165.29 431.174C1167.16 434.106 1166.48 437.541 1163.85 439.214C1161.07 440.995 1157.74 440.185 1155.81 437.181C1153.8 434.034 1151.86 430.832 1149.88 427.648C1149.72 427.702 1149.57 427.756 1149.41 427.81V427.792ZM1123.92 431.03C1123.92 434.465 1123.99 437.901 1123.89 441.319C1123.83 442.938 1124.43 443.333 1125.95 443.315C1131.82 443.243 1137.7 443.297 1143.58 443.279C1146.32 443.279 1146.33 443.279 1146.33 440.437C1146.33 434.357 1146.3 428.296 1146.39 422.216C1146.39 421.424 1147.04 420.651 1147.38 419.877C1148.15 420.345 1149.1 420.669 1149.63 421.316C1150.58 422.486 1151.26 423.871 1152.05 425.166C1154.2 428.655 1156.34 432.145 1158.51 435.599C1159.38 436.966 1160.67 437.379 1162.09 436.534C1163.5 435.688 1163.46 434.375 1162.83 433.062C1162.52 432.415 1162.07 431.821 1161.68 431.21C1157.81 425.22 1153.91 419.266 1150.09 413.24C1148.08 410.056 1145.36 408.437 1141.57 408.491C1136.82 408.563 1132.07 408.455 1127.32 408.527C1123.45 408.581 1120.29 407.178 1117.63 404.39C1112.93 399.479 1108.15 394.641 1103.4 389.784C1101.38 387.715 1100.11 387.356 1098.9 388.507C1097.7 389.658 1098.02 391.025 1099.98 393.058C1107.09 400.415 1114.17 407.79 1121.3 415.111C1123.06 416.909 1123.96 418.96 1123.9 421.496C1123.83 424.662 1123.9 427.828 1123.9 430.994L1123.92 431.03ZM1135.33 446.409C1127.74 446.409 1120.14 446.409 1112.55 446.481C1111.92 446.481 1111.31 447.219 1110.7 447.632C1111.31 447.974 1111.91 448.352 1112.54 448.658C1112.75 448.765 1113.06 448.676 1113.33 448.676C1127.92 448.676 1142.5 448.676 1157.09 448.676C1157.61 448.676 1158.21 448.765 1158.66 448.568C1159.05 448.388 1159.45 447.884 1159.5 447.47C1159.54 447.183 1159.05 446.661 1158.69 446.553C1158.15 446.373 1157.52 446.445 1156.93 446.445C1149.73 446.445 1142.54 446.445 1135.34 446.445L1135.33 446.409Z" fill="#FECB2E"/>
<path d="M1168.26 405.613C1161.77 405.667 1161.75 405.667 1161.79 399.246C1161.79 397.951 1162.11 396.655 1162.25 395.36C1162.52 392.842 1161.23 390.935 1159.68 389.173C1156.91 385.989 1155.72 382.373 1156.66 378.182C1157.78 373.2 1161.71 369.584 1166.75 368.847C1171.55 368.145 1176.43 370.591 1178.89 374.944C1181.32 379.225 1180.85 384.532 1177.69 388.471C1176.91 389.442 1176.09 390.414 1175.47 391.475C1174.61 392.986 1174.4 394.515 1174.76 396.386C1175.21 398.598 1175.01 400.972 1174.9 403.275C1174.85 404.714 1173.8 405.505 1172.38 405.577C1171 405.649 1169.61 405.577 1168.23 405.577L1168.26 405.613ZM1168.42 394.353C1169.4 393.975 1170.76 395.162 1171.55 393.31C1172.52 390.989 1173.73 388.669 1175.28 386.69C1178.66 382.319 1177.74 376.042 1173.08 373.218C1169.45 371.023 1164.9 371.617 1162.02 374.657C1158.94 377.912 1158.67 382.445 1161.21 386.079C1162.52 387.949 1164.09 389.802 1164.81 391.907C1165.49 393.939 1166.28 394.857 1168.42 394.353ZM1168.35 402.519C1171.99 402.519 1171.95 402.519 1171.9 398.994C1171.9 398.005 1171.61 397.519 1170.56 397.555C1169.13 397.609 1167.67 397.519 1166.23 397.609C1165.8 397.627 1165.17 397.933 1165.02 398.274C1163.96 400.793 1165.11 402.519 1167.76 402.519C1167.96 402.519 1168.15 402.519 1168.35 402.519Z" fill="#FECB2E"/>
<path d="M1146.07 392.572C1146.01 398.634 1141.12 403.509 1135.07 403.527C1129.1 403.527 1124.16 398.526 1124.16 392.5C1124.16 386.51 1129.16 381.546 1135.16 381.564C1141.17 381.582 1146.12 386.582 1146.07 392.59V392.572ZM1142.94 392.572C1142.94 388.219 1139.5 384.694 1135.22 384.64C1130.83 384.586 1127.29 388.129 1127.3 392.554C1127.3 396.871 1130.79 400.343 1135.11 400.361C1139.41 400.379 1142.92 396.889 1142.94 392.554V392.572Z" fill="#FECB2E"/>
<path d="M1150.18 382.157C1149.19 382.157 1148.17 382.319 1147.23 382.103C1146.68 381.977 1145.81 381.168 1145.87 380.808C1145.98 380.197 1146.68 379.261 1147.2 379.225C1149.21 379.045 1151.28 379.081 1153.3 379.225C1153.78 379.261 1154.52 380.143 1154.54 380.628C1154.54 381.132 1153.84 381.941 1153.31 382.067C1152.32 382.301 1151.23 382.139 1150.18 382.139V382.157Z" fill="#FECB2E"/>
<path d="M1186.45 382.175C1185.53 382.175 1184.56 382.355 1183.71 382.121C1183.1 381.941 1182.65 381.186 1182.15 380.682C1182.65 380.161 1183.1 379.261 1183.64 379.207C1185.53 379.027 1187.45 378.991 1189.34 379.207C1189.95 379.261 1190.46 380.197 1191.03 380.736C1190.49 381.222 1190.03 381.977 1189.42 382.139C1188.5 382.373 1187.45 382.193 1186.47 382.193L1186.45 382.175Z" fill="#FECB2E"/>
<path d="M1162.65 367.408C1162.06 368.037 1161.71 368.703 1161.28 368.775C1160.74 368.865 1159.84 368.667 1159.59 368.271C1158.46 366.58 1157.43 364.799 1156.53 362.983C1156.32 362.551 1156.61 361.652 1156.97 361.256C1157.25 360.95 1158.35 360.86 1158.51 361.094C1159.95 363.109 1161.25 365.213 1162.65 367.408Z" fill="#FECB2E"/>
<path d="M1175.64 369.206C1175.3 368.505 1174.49 367.588 1174.68 367.138C1175.58 365.123 1176.73 363.199 1177.94 361.346C1178.16 361.004 1179.18 360.896 1179.67 361.094C1180.06 361.256 1180.57 362.209 1180.42 362.479C1179.31 364.602 1178.05 366.652 1176.81 368.721C1176.7 368.901 1176.34 368.919 1175.65 369.206H1175.64Z" fill="#FECB2E"/>
<path d="M1155.02 374.782C1152.94 373.487 1150.9 372.282 1148.98 370.933C1148.69 370.735 1148.66 369.674 1148.91 369.35C1149.23 368.937 1150.15 368.523 1150.53 368.721C1152.47 369.674 1154.36 370.771 1156.16 371.958C1156.52 372.192 1156.62 373.182 1156.48 373.703C1156.35 374.117 1155.65 374.369 1155.04 374.8L1155.02 374.782Z" fill="#FECB2E"/>
<path d="M1188.16 370.393C1187.92 370.663 1187.6 371.257 1187.09 371.581C1185.66 372.498 1184.22 373.451 1182.65 374.099C1182.02 374.351 1181.07 373.865 1180.28 373.703C1180.55 372.984 1180.6 371.958 1181.12 371.581C1182.54 370.537 1184.13 369.692 1185.69 368.883C1186.97 368.235 1188.12 368.847 1188.17 370.393H1188.16Z" fill="#FECB2E"/>
<path d="M1169.84 362.335C1169.84 363.378 1170.01 364.458 1169.79 365.465C1169.68 366.004 1168.84 366.814 1168.48 366.742C1167.9 366.616 1167.04 365.915 1167 365.393C1166.84 363.45 1166.84 361.454 1167 359.511C1167.06 358.971 1167.94 358.504 1168.42 358C1168.89 358.522 1169.63 358.971 1169.79 359.583C1170.02 360.428 1169.84 361.4 1169.84 362.317V362.335Z" fill="#FECB2E"/>
<path d="M665.96 211.762C665.96 210.977 665.96 210.273 665.96 209.584C665.96 191.78 665.96 173.975 665.96 156.17C665.96 153.048 666.007 153 669.078 153C697.126 153 725.19 153 753.238 153C755.803 153 755.977 153.192 755.977 155.834C755.977 173.815 756.008 191.796 756.008 209.777C756.008 210.977 755.866 212.066 757.591 212.306C758.114 212.37 758.858 213.475 758.889 214.132C759.016 216.165 759.079 218.263 758.747 220.264C758.177 223.787 755.264 226.14 751.751 226.204C748.791 226.268 745.831 226.22 742.871 226.22C719.112 226.22 695.354 226.22 671.595 226.22C665.754 226.204 663 223.386 663 217.414C663 216.774 663 216.117 663 215.477C663.016 212.835 663.285 212.467 665.96 211.746V211.762ZM710.913 211.986C724.272 211.986 737.631 211.986 750.991 211.986C752.489 211.986 753.238 211.207 753.238 209.648C753.238 192.436 753.238 175.224 753.238 157.996C753.238 156.469 752.473 155.706 750.943 155.706C724.225 155.706 697.506 155.706 670.788 155.658C669.046 155.658 668.682 156.234 668.682 157.867C668.73 175.208 668.73 192.532 668.682 209.873C668.682 211.602 669.189 212.034 670.851 212.018C684.21 211.954 697.569 211.986 710.929 211.986H710.913ZM711.024 223.482C723.987 223.482 736.935 223.482 749.899 223.482C750.706 223.482 751.529 223.482 752.336 223.354C754.426 223.034 756.024 221.321 756.198 219.191C756.277 218.199 756.198 217.19 756.262 216.197C756.325 215.14 755.929 214.74 754.853 214.756C746.195 214.788 737.537 214.804 728.878 214.772C727.77 214.772 727.375 215.14 727.28 216.277C726.995 219.784 724.81 221.817 721.312 221.849C714.459 221.897 707.605 221.897 700.735 221.849C697.269 221.833 695.005 219.832 694.673 216.341C694.546 214.932 693.945 214.756 692.805 214.772C688.975 214.82 685.128 214.788 681.298 214.772C676.644 214.772 672.006 214.74 667.353 214.788C666.799 214.788 665.849 215.172 665.738 215.573C664.425 220.04 667.036 223.466 671.627 223.466C684.764 223.466 697.886 223.466 711.024 223.466V223.482ZM711.055 214.804C707.177 214.804 703.284 214.788 699.406 214.82C698.757 214.82 697.585 215.044 697.569 215.269C697.49 216.085 697.522 217.174 698.013 217.702C698.646 218.391 699.738 219.015 700.64 219.031C707.541 219.143 714.443 219.127 721.344 219.031C722.215 219.031 723.291 218.487 723.892 217.846C724.399 217.302 724.541 216.229 724.462 215.413C724.446 215.156 723.212 214.852 722.547 214.836C718.716 214.788 714.886 214.804 711.071 214.82L711.055 214.804Z" fill="#FECB2E"/>
<path d="M711.024 159.148C723.053 159.148 735.067 159.148 747.097 159.148C749.297 159.148 749.614 159.453 749.614 161.694C749.614 176.441 749.614 191.187 749.614 205.95C749.614 208.32 749.345 208.576 747.002 208.592C722.895 208.592 698.788 208.592 674.681 208.592C672.719 208.592 672.339 208.24 672.339 206.222C672.339 191.347 672.339 176.489 672.339 161.614C672.339 159.469 672.671 159.164 674.761 159.164C686.838 159.164 698.931 159.164 711.008 159.164L711.024 159.148ZM711.119 161.902C699.801 161.902 688.468 161.918 677.151 161.87C675.647 161.87 675.014 162.175 675.03 163.904C675.109 177.177 675.093 190.451 675.03 203.724C675.03 205.454 675.584 205.87 677.23 205.87C699.754 205.822 722.294 205.822 744.818 205.87C746.369 205.87 746.907 205.502 746.907 203.82C746.844 190.547 746.844 177.273 746.907 164C746.907 162.287 746.385 161.854 744.738 161.854C733.532 161.918 722.325 161.886 711.119 161.902Z" fill="#FECB2E"/>
<path d="M716.374 200.81C716.374 198.937 716.374 197.256 716.374 195.575C716.374 194.598 716.453 193.525 717.735 193.541C718.985 193.541 719.096 194.614 719.112 195.591C719.144 196.935 719.16 198.296 719.128 199.641C719.096 201.098 720.141 200.794 720.964 200.794C721.787 200.794 722.816 201.066 722.8 199.625C722.769 196.391 722.911 193.157 722.705 189.938C722.515 187.04 720.822 185.087 718.052 184.174C717.783 184.078 717.403 184.11 717.229 183.934C716.722 183.422 715.883 182.781 715.915 182.253C716.01 181.164 716.991 181.1 717.941 181.276C722.009 181.997 725.349 185.727 725.491 190.035C725.618 193.909 725.491 197.784 725.538 201.675C725.538 203.308 724.605 203.612 723.275 203.612C716.421 203.612 709.568 203.612 702.714 203.612C701.321 203.612 699.928 203.58 698.535 203.612C697.174 203.644 696.477 203.084 696.493 201.643C696.525 197.768 696.43 193.877 696.541 190.003C696.667 185.727 699.817 182.141 703.917 181.324C704.914 181.132 705.879 181.068 706.133 182.317C706.37 183.47 705.484 183.774 704.582 184.03C701.004 185.023 699.216 187.313 699.168 191.043C699.137 193.797 699.231 196.567 699.137 199.321C699.089 200.842 699.928 200.858 701.02 200.842C702.065 200.842 703.03 200.906 702.904 199.337C702.809 198.168 702.888 196.984 702.904 195.815C702.904 194.806 702.84 193.589 704.217 193.573C705.705 193.573 705.626 194.838 705.642 195.911C705.642 197.144 705.579 198.393 705.69 199.609C705.737 200.042 706.18 200.522 706.576 200.778C706.861 200.97 707.367 200.826 707.779 200.826C710.549 200.826 713.335 200.826 716.405 200.826L716.374 200.81Z" fill="#FECB2E"/>
<path d="M711.055 179.371C707.13 179.403 703.917 176.233 703.885 172.294C703.853 168.291 706.924 165.073 710.85 164.993C714.854 164.929 718.147 168.163 718.115 172.166C718.083 176.169 714.981 179.339 711.055 179.371ZM706.623 172.166C706.592 174.6 708.634 176.665 711.055 176.633C713.366 176.601 715.377 174.551 715.377 172.214C715.377 169.844 713.445 167.827 711.103 167.747C708.697 167.667 706.655 169.684 706.623 172.166Z" fill="#FECB2E"/>
<defs>
<clipPath id="clip0_111_162">
<rect width="96" height="81.7655" fill="white" transform="translate(1372 159)"/>
</clipPath>
<clipPath id="clip1_111_162">
<rect width="96" height="93.7875" fill="white" transform="translate(146 226)"/>
</clipPath>
<clipPath id="clip2_111_162">
<rect width="96" height="73.2203" fill="white" transform="translate(1624 420)"/>
</clipPath>
<clipPath id="clip3_111_162">
<rect width="96" height="81.7655" fill="white" transform="translate(465 452)"/>
</clipPath>
</defs>
</svg>
