<svg width="256" height="199" viewBox="0 0 256 199" fill="none" xmlns="http://www.w3.org/2000/svg">
<g clip-path="url(#clip0_19_179)">
<path d="M44 43V76.93H77.93V43H44ZM70.62 54.27H64.43V71.38H57.51V54.27H51.32V49.46H70.62V54.27Z" fill="white"/>
<path d="M99.15 67.17C99.38 67.17 99.8 67.14 100.42 67.09L101 71.05C99.03 71.97 96.46 72.43 93.31 72.43C90.36 72.43 88.1 71.69 86.52 70.2C84.94 68.71 84.15 66.47 84.15 63.47C84.15 61.93 84.35 60.45 84.75 59.01C85.15 57.57 85.6 56.57 86.12 56.01C86.66 55.45 87.66 54.96 89.12 54.55C90.58 54.14 92.03 53.93 93.47 53.93C95.78 53.93 97.51 54.34 98.66 55.16C99.81 55.98 100.57 57.11 100.93 58.56C101.29 60.01 101.47 61.95 101.47 64.39C99.73 64.49 98.02 64.54 96.36 64.54H90.9C90.9 65.36 91.07 65.98 91.42 66.39C91.77 66.8 92.26 67.06 92.9 67.18C93.54 67.3 94.44 67.35 95.59 67.35C96.23 67.35 97.42 67.29 99.17 67.16L99.15 67.17ZM90.92 59.52C90.84 60.11 90.79 60.78 90.77 61.52H92.77C93.97 61.52 94.85 61.51 95.39 61.48C95.39 60.25 95.22 59.38 94.87 58.87C94.52 58.36 93.93 58.1 93.08 58.1C92.39 58.1 91.78 58.24 91.27 58.52C91.12 58.6 91 58.93 90.92 59.52Z" fill="white"/>
<path d="M114.31 71.98L113.69 69.56C112.51 71.48 110.87 72.44 108.77 72.44C107.05 72.44 105.65 71.96 104.56 71C103.47 70.04 102.93 68.69 102.93 66.94C102.93 65.86 103.24 64.92 103.87 64.11C104.5 63.3 105.36 62.73 106.47 62.4C107.91 61.99 110.12 61.76 113.12 61.71C113.12 60.02 113.04 59.12 112.89 59.02C112.76 58.92 112.35 58.87 111.66 58.87C111.22 58.87 110.62 58.9 109.85 58.95C108.62 59 106.95 59.14 104.85 59.37C104.64 57.99 104.49 56.5 104.39 54.91C105.75 54.63 107.17 54.39 108.66 54.2C110.15 54.01 111.48 53.91 112.66 53.91C114.71 53.91 116.25 54.25 117.27 54.93C118.29 55.61 118.96 56.5 119.27 57.6C119.58 58.7 119.72 60.1 119.69 61.79L119.65 67.44L119.76 71.98H114.3H114.31ZM113.12 67.75V64.9H112.81C110.91 64.9 109.86 65 109.66 65.21C109.53 65.34 109.44 65.53 109.37 65.79C109.31 66.05 109.27 66.29 109.27 66.52C109.27 67.14 109.41 67.56 109.69 67.79C109.97 68.02 110.41 68.14 111 68.14C111.67 68.14 112.37 68.01 113.11 67.76L113.12 67.75Z" fill="white"/>
<path d="M137.53 71.44C135.45 72.13 133.13 72.48 130.57 72.48C127.7 72.48 125.55 71.76 124.13 70.31C122.71 68.86 122 66.6 122 63.52C122 62.01 122.2 60.51 122.61 59.04C123.02 57.57 123.46 56.57 123.92 56.06C124.46 55.47 125.52 54.97 127.09 54.56C128.67 54.15 130.3 53.94 131.99 53.94C133.68 53.94 135.54 54.09 137.34 54.4C137.29 55.04 137.2 55.79 137.09 56.65C136.97 57.51 136.85 58.27 136.72 58.94C135.13 58.84 133.63 58.79 132.22 58.79C130.81 58.79 129.95 58.87 129.57 59.02C129.36 59.1 129.18 59.62 129.01 60.6C128.84 61.58 128.76 62.48 128.76 63.33C128.76 64.46 128.92 65.32 129.24 65.93C129.56 66.53 130.07 66.95 130.76 67.18C131.45 67.41 132.39 67.53 133.57 67.53C134.08 67.53 135.21 67.48 136.95 67.38L137.53 71.46V71.44Z" fill="white"/>
<path d="M157.35 57.52C157.46 58.65 157.52 60.37 157.52 62.67V71.98H150.94V61.23C150.94 60.32 150.88 59.76 150.75 59.56C150.67 59.46 150.49 59.38 150.19 59.33C149.89 59.28 149.55 59.25 149.17 59.25L148.52 59.29C147.8 59.32 147.06 59.48 146.29 59.79V71.98H139.71V48.9L146.29 48.63V53.13C146.29 54.98 146.23 56.21 146.1 56.82L146.14 56.86C147.88 54.89 149.97 53.9 152.41 53.9C153.33 53.9 154.2 54.03 155.01 54.28C155.82 54.54 156.43 54.91 156.84 55.39C157.07 55.67 157.24 56.38 157.36 57.51L157.35 57.52Z" fill="white"/>
<path d="M174.87 67.17C175.1 67.17 175.52 67.14 176.14 67.09L176.72 71.05C174.75 71.97 172.18 72.43 169.03 72.43C166.08 72.43 163.82 71.69 162.24 70.2C160.66 68.71 159.87 66.47 159.87 63.47C159.87 61.93 160.07 60.45 160.47 59.01C160.87 57.57 161.32 56.57 161.84 56.01C162.38 55.45 163.38 54.96 164.84 54.55C166.3 54.14 167.75 53.93 169.19 53.93C171.5 53.93 173.23 54.34 174.38 55.16C175.53 55.98 176.29 57.11 176.65 58.56C177.01 60.01 177.19 61.95 177.19 64.39C175.45 64.49 173.74 64.54 172.08 64.54H166.62C166.62 65.36 166.79 65.98 167.14 66.39C167.49 66.8 167.98 67.06 168.62 67.18C169.26 67.3 170.16 67.35 171.31 67.35C171.95 67.35 173.14 67.29 174.89 67.16L174.87 67.17ZM166.64 59.52C166.56 60.11 166.51 60.78 166.49 61.52H168.49C169.69 61.52 170.57 61.51 171.11 61.48C171.11 60.25 170.94 59.38 170.59 58.87C170.24 58.36 169.65 58.1 168.8 58.1C168.11 58.1 167.5 58.24 166.99 58.52C166.84 58.6 166.72 58.93 166.64 59.52Z" fill="white"/>
<path d="M191.5 54.02C191.87 54.1 192.15 54.19 192.33 54.29C192.33 54.85 192.27 55.78 192.14 57.08C192.01 58.37 191.9 59.29 191.79 59.83C191.53 59.8 191.06 59.79 190.37 59.79C188.75 59.79 187.32 59.88 186.06 60.06V71.98H179.48V54.29H184.98L185.75 57.14H185.79C186.53 56.17 187.33 55.38 188.17 54.79C189.02 54.2 189.77 53.91 190.44 53.91C190.77 53.91 191.13 53.95 191.5 54.03V54.02Z" fill="white"/>
<path d="M59.56 95.94C59.28 96.15 59.05 96.73 58.89 97.69C58.72 98.65 58.64 99.66 58.64 100.71C58.64 102.27 58.88 103.31 59.35 103.82C59.82 104.33 60.49 104.59 61.33 104.59C62.02 104.59 62.74 104.47 63.48 104.24V95.9C62.74 95.8 61.92 95.75 61.02 95.75C60.25 95.75 59.76 95.81 59.56 95.94Z" fill="white"/>
<path d="M44 81.47V115.4H77.93V81.47H44ZM70.06 109.44H64.64L64.1 106.48C63.59 107.48 62.83 108.27 61.83 108.86C60.83 109.45 59.7 109.74 58.45 109.74C56.45 109.74 54.85 109.02 53.66 107.59C52.47 106.15 51.87 104 51.87 101.13C51.87 98.95 52.13 97.16 52.64 95.75C53.15 94.34 53.75 93.33 54.45 92.71C54.89 92.33 55.78 92.01 57.12 91.75C58.47 91.49 59.66 91.37 60.72 91.37C61.64 91.37 62.59 91.46 63.57 91.64C63.49 90.41 63.45 89.73 63.45 89.6V86.37L70.06 86.1V109.44Z" fill="white"/>
<path d="M84.16 91.75H90.74V109.44H84.16V91.75ZM85.22 88.67C84.59 88.08 84.28 87.38 84.28 86.56C84.28 85.74 84.59 85.04 85.22 84.44C85.85 83.85 86.6 83.56 87.47 83.56C88.34 83.56 89.09 83.85 89.7 84.44C90.32 85.03 90.62 85.73 90.62 86.56C90.62 87.39 90.31 88.09 89.7 88.67C89.09 89.26 88.34 89.55 87.47 89.55C86.6 89.55 85.85 89.26 85.22 88.67Z" fill="white"/>
<path d="M107 91.69C108.31 91.86 109.83 92.08 111.58 92.36V107.66C111.58 111.33 110.36 114.17 107.93 116.2C107.62 116.46 106.93 116.67 105.85 116.85C104.77 117.03 103.56 117.12 102.2 117.12C99.25 117.12 96.92 116.74 95.2 115.97C95.17 115.41 95.22 114.66 95.33 113.74C95.44 112.82 95.57 112.09 95.7 111.55C97.55 111.83 99.35 111.97 101.12 111.97C102.02 111.97 102.78 111.93 103.41 111.84C104.04 111.75 104.43 111.62 104.58 111.44C104.79 111.23 104.94 110.47 105.04 109.13C105.07 108.77 105.08 108.25 105.08 107.55V106.59C104.44 107.54 103.62 108.22 102.62 108.63C101.62 109.04 100.72 109.25 99.93 109.25C97.78 109.25 96.15 108.54 95.05 107.13C93.95 105.72 93.4 103.66 93.4 100.94C93.4 99.15 93.65 97.46 94.15 95.88C94.65 94.3 95.34 93.21 96.21 92.59C96.77 92.21 97.69 91.92 98.96 91.72C100.23 91.53 101.66 91.43 103.25 91.43C104.45 91.43 105.71 91.51 107.02 91.68L107 91.69ZM105 103.98V95.94C104.72 95.89 104.29 95.84 103.73 95.79C103.47 95.76 103.09 95.75 102.58 95.75C101.79 95.75 101.29 95.83 101.08 95.98C100.8 96.19 100.57 96.76 100.41 97.69C100.24 98.63 100.16 99.61 100.16 100.63C100.16 102.04 100.32 103.03 100.64 103.59C100.96 104.15 101.56 104.44 102.43 104.44C103.38 104.44 104.24 104.29 105.01 103.98H105Z" fill="white"/>
<path d="M114.8 91.75H121.38V109.44H114.8V91.75ZM115.86 88.67C115.23 88.08 114.92 87.38 114.92 86.56C114.92 85.74 115.23 85.04 115.86 84.44C116.49 83.85 117.24 83.56 118.11 83.56C118.98 83.56 119.73 83.85 120.34 84.44C120.96 85.03 121.26 85.73 121.26 86.56C121.26 87.39 120.95 88.09 120.34 88.67C119.73 89.26 118.98 89.55 118.11 89.55C117.24 89.55 116.49 89.26 115.86 88.67Z" fill="white"/>
<path d="M132.8 102.17C132.8 102.63 132.81 103.11 132.84 103.61C132.87 104.11 132.94 104.42 133.07 104.55C133.25 104.73 133.88 104.82 134.95 104.82L136.26 104.78C136.49 106.01 136.61 107.43 136.61 109.05C136.12 109.23 135.41 109.4 134.48 109.55C133.54 109.7 132.65 109.78 131.81 109.78C130.04 109.78 128.68 109.39 127.71 108.61C126.75 107.83 126.27 106.62 126.27 104.98V95.52H123.39V92.02L126.27 91.75L128 87.52L132.81 87.25V91.75H136.89V95.52H132.81V102.17H132.8Z" fill="white"/>
<path d="M149.37 109.44L148.75 107.02C147.57 108.94 145.93 109.9 143.83 109.9C142.11 109.9 140.71 109.42 139.62 108.46C138.53 107.5 137.99 106.15 137.99 104.4C137.99 103.32 138.3 102.38 138.93 101.57C139.56 100.76 140.42 100.19 141.53 99.86C142.97 99.45 145.18 99.22 148.18 99.17C148.18 97.48 148.1 96.58 147.95 96.48C147.82 96.38 147.41 96.33 146.72 96.33C146.28 96.33 145.68 96.36 144.91 96.41C143.68 96.46 142.01 96.6 139.91 96.83C139.7 95.45 139.55 93.96 139.45 92.37C140.81 92.09 142.23 91.85 143.72 91.66C145.21 91.47 146.54 91.37 147.72 91.37C149.77 91.37 151.31 91.71 152.33 92.39C153.35 93.07 154.02 93.96 154.33 95.06C154.64 96.16 154.78 97.56 154.75 99.25L154.71 104.9L154.82 109.44H149.36H149.37ZM148.18 105.21V102.36H147.87C145.97 102.36 144.92 102.46 144.72 102.67C144.59 102.8 144.5 102.99 144.43 103.25C144.37 103.51 144.33 103.75 144.33 103.98C144.33 104.6 144.47 105.02 144.75 105.25C145.03 105.48 145.47 105.6 146.06 105.6C146.73 105.6 147.43 105.47 148.17 105.22L148.18 105.21Z" fill="white"/>
<path d="M157.83 86.37L164.41 86.1V109.44H157.83V86.37Z" fill="white"/>
<path d="M44 119.94V153.87H77.93V119.94H44ZM64.23 142.77H57.85L56.7 147.58H49.62L56.7 125.66H65.74L72.51 147.58H65.4L64.25 142.77H64.23ZM61 130.39L58.73 138.5H63.31L61.16 130.39H61.01H61Z" fill="white"/>
<path d="M97.77 129.23C99.08 129.4 100.6 129.62 102.35 129.9V145.2C102.35 148.87 101.13 151.71 98.7 153.74C98.39 154 97.7 154.21 96.62 154.39C95.54 154.57 94.33 154.66 92.97 154.66C90.02 154.66 87.69 154.28 85.97 153.51C85.94 152.95 85.99 152.2 86.1 151.28C86.21 150.36 86.34 149.63 86.47 149.09C88.32 149.37 90.12 149.51 91.89 149.51C92.79 149.51 93.55 149.47 94.18 149.38C94.81 149.29 95.2 149.16 95.35 148.98C95.56 148.77 95.71 148.01 95.81 146.67C95.84 146.31 95.85 145.79 95.85 145.09V144.13C95.21 145.08 94.39 145.76 93.39 146.17C92.39 146.58 91.49 146.79 90.7 146.79C88.55 146.79 86.92 146.08 85.82 144.67C84.72 143.26 84.17 141.2 84.17 138.48C84.17 136.69 84.42 135 84.92 133.42C85.42 131.84 86.11 130.75 86.98 130.13C87.54 129.75 88.46 129.46 89.73 129.26C91 129.07 92.43 128.97 94.02 128.97C95.22 128.97 96.48 129.05 97.79 129.22L97.77 129.23ZM95.77 141.52V133.48C95.49 133.43 95.06 133.38 94.5 133.33C94.24 133.3 93.86 133.29 93.35 133.29C92.56 133.29 92.06 133.37 91.85 133.52C91.57 133.73 91.34 134.3 91.18 135.23C91.01 136.17 90.93 137.15 90.93 138.17C90.93 139.58 91.09 140.57 91.41 141.13C91.73 141.69 92.33 141.98 93.2 141.98C94.15 141.98 95.01 141.83 95.78 141.52H95.77Z" fill="white"/>
<path d="M119.76 142.17C119.99 142.17 120.41 142.14 121.03 142.09L121.61 146.05C119.64 146.97 117.07 147.43 113.92 147.43C110.97 147.43 108.71 146.69 107.13 145.2C105.55 143.71 104.76 141.47 104.76 138.47C104.76 136.93 104.96 135.45 105.36 134.01C105.76 132.57 106.21 131.57 106.73 131.01C107.27 130.45 108.27 129.96 109.73 129.55C111.19 129.14 112.64 128.93 114.08 128.93C116.39 128.93 118.12 129.34 119.27 130.16C120.42 130.98 121.18 132.11 121.54 133.56C121.9 135.01 122.08 136.95 122.08 139.39C120.34 139.49 118.63 139.54 116.97 139.54H111.51C111.51 140.36 111.68 140.98 112.03 141.39C112.38 141.8 112.87 142.06 113.51 142.18C114.15 142.3 115.05 142.35 116.2 142.35C116.84 142.35 118.03 142.29 119.78 142.16L119.76 142.17ZM111.53 134.52C111.45 135.11 111.4 135.78 111.38 136.52H113.38C114.58 136.52 115.46 136.51 116 136.48C116 135.25 115.83 134.38 115.48 133.87C115.13 133.36 114.54 133.1 113.69 133.1C113 133.1 112.39 133.24 111.88 133.52C111.73 133.6 111.61 133.93 111.53 134.52Z" fill="white"/>
<path d="M142.01 132.51C142.12 133.64 142.18 135.36 142.18 137.66V146.97H135.6V136.16C135.6 135.34 135.54 134.83 135.41 134.62C135.2 134.36 134.73 134.24 133.99 134.24C133.63 134.24 133.36 134.25 133.18 134.28C132.46 134.31 131.72 134.47 130.95 134.78V146.97H124.37V129.28H129.71L130.44 132.24C132.29 130.01 134.49 128.89 137.05 128.89C137.97 128.89 138.84 129.02 139.65 129.27C140.46 129.53 141.07 129.9 141.48 130.38C141.71 130.66 141.88 131.37 142 132.5L142.01 132.51Z" fill="white"/>
<path d="M160.1 146.43C158.02 147.12 155.7 147.47 153.14 147.47C150.27 147.47 148.12 146.75 146.7 145.3C145.28 143.85 144.57 141.59 144.57 138.51C144.57 137 144.77 135.5 145.18 134.03C145.59 132.56 146.03 131.56 146.49 131.05C147.03 130.46 148.09 129.96 149.66 129.55C151.24 129.14 152.87 128.93 154.56 128.93C156.25 128.93 158.11 129.08 159.91 129.39C159.86 130.03 159.77 130.78 159.66 131.64C159.54 132.5 159.42 133.26 159.29 133.93C157.7 133.83 156.2 133.78 154.79 133.78C153.38 133.78 152.52 133.86 152.14 134.01C151.93 134.09 151.75 134.61 151.58 135.59C151.41 136.57 151.33 137.47 151.33 138.32C151.33 139.45 151.49 140.31 151.81 140.92C152.13 141.52 152.64 141.94 153.33 142.17C154.02 142.4 154.96 142.52 156.14 142.52C156.65 142.52 157.78 142.47 159.52 142.37L160.1 146.45V146.43Z" fill="white"/>
<path d="M180.6 129.28L175.99 144.08C175.09 146.93 174.28 149 173.57 150.29C172.85 151.58 172.13 152.49 171.42 153C171.01 153.28 170.36 153.5 169.48 153.65C168.6 153.8 167.64 153.88 166.61 153.88C165.07 153.88 163.84 153.74 162.92 153.46C162.89 152.84 162.92 152.1 163 151.21C163.08 150.33 163.18 149.58 163.31 148.96C164.39 149.01 165.44 149.04 166.46 149.04C167.23 149.04 167.81 149.03 168.19 149C168.57 148.26 168.93 147.47 169.27 146.65L166.62 146.5L160.7 129.27H167.66L170.74 141.65L170.78 142.38H170.9L173.67 129.27H180.63L180.6 129.28Z" fill="white"/>
<path d="M203.42 120.02L193.08 109.68L186.81 115.96L177.18 84.71L208.43 94.34L202.16 100.62L212.5 110.96L203.43 120.04L203.42 120.02Z" fill="white"/>
</g>
<defs>
<clipPath id="clip0_19_179">
<rect width="168.49" height="111.66" fill="white" transform="translate(44 43)"/>
</clipPath>
</defs>
</svg>
