<svg width="26" height="24" viewBox="0 0 26 24" fill="none" xmlns="http://www.w3.org/2000/svg">
<path fill-rule="evenodd" clip-rule="evenodd" d="M3.55068 0.76611C3.82413 0.504043 4.15247 0.300747 4.51396 0.169695C4.87546 0.0386425 5.26184 -0.017174 5.6475 0.00594431C6.03317 0.0290626 6.40931 0.130588 6.751 0.303792C7.0927 0.476996 7.39214 0.717924 7.62949 1.01061L10.4346 4.46961C10.9488 5.10411 11.1301 5.93061 10.9269 6.71061L10.0721 9.99561C10.0279 10.1658 10.0303 10.344 10.079 10.513C10.1278 10.682 10.2212 10.836 10.3503 10.9601L14.19 14.6456C14.3194 14.7697 14.4802 14.8596 14.6565 14.9064C14.8329 14.9532 15.0189 14.9553 15.1964 14.9126L18.6173 14.0921C19.0183 13.9959 19.4369 13.9884 19.8413 14.0702C20.2458 14.1521 20.6256 14.3212 20.952 14.5646L24.5558 17.2556C25.8513 18.2231 25.9701 20.0606 24.8105 21.1721L23.1946 22.7231C22.0382 23.8331 20.3097 24.3206 18.6985 23.7761C14.5747 22.3834 10.8305 20.1174 7.74357 17.1461C4.64819 14.1836 2.28736 10.5903 0.836166 6.63261C0.270446 5.08761 0.778344 3.42711 1.93479 2.31711L3.55068 0.76611Z" fill="white"/>
</svg>
